<?xml version="1.0" encoding="iso-8859-1"?>
<!-- Generator: Adobe Illustrator 19.0.0, SVG Export Plug-In . SVG Version: 6.00 Build 0)  -->
<svg version="1.1" id="Layer_1" xmlns="http://www.w3.org/2000/svg" xmlns:xlink="http://www.w3.org/1999/xlink" x="0px" y="0px"
	 viewBox="0 0 512 512" style="enable-background:new 0 0 512 512;" xml:space="preserve">
<circle style="fill:#F5E038;" cx="255.957" cy="179.04" r="128.267"/>
<path style="fill:#FFF2BA;" d="M421.141,369.25l22.26,12.752c8.195,4.695,18.646,1.858,23.341-6.339
	c4.695-8.195,1.858-18.646-6.339-23.341l-22.26-12.752L421.141,369.25z"/>
<polygon style="fill:#F1EDE8;" points="332.921,264.551 444.362,331.236 417.31,378.456 315.819,324.409 "/>
<path style="fill:#FFF2BA;" d="M90.78,369.25l-22.26,12.752c-8.195,4.695-18.646,1.858-23.341-6.339s-1.858-18.646,6.339-23.341
	l22.26-12.752L90.78,369.25z"/>
<polygon style="fill:#F1EDE8;" points="179,264.551 67.561,331.236 94.611,378.456 196.103,324.409 "/>
<g>
	<polygon style="fill:#E3DCD2;" points="179,264.551 151.701,280.887 141.315,353.585 196.103,324.409 	"/>
	<polygon style="fill:#E3DCD2;" points="332.921,264.551 360.222,280.887 370.607,353.585 315.819,324.409 	"/>
</g>
<polygon style="fill:#F1EDE8;" points="367.126,503.983 144.796,503.983 179,264.551 332.921,264.551 "/>
<path style="fill:#754F1E;" d="M247.409,93.528h17.102c37.781,0,68.409,30.628,68.409,68.409v102.614H179V161.937
	C179,124.156,209.628,93.528,247.409,93.528z"/>
<circle style="fill:#FFF2BA;" cx="255.957" cy="179.04" r="59.858"/>
<path style="fill:#F9C900;" d="M315.819,179.04c0-33.059-26.799-59.858-59.858-59.858s-59.858,26.799-59.858,59.858
	c0,11.282,3.125,21.832,8.551,30.84v-10.531c0-9.445,7.656-17.102,17.102-17.102h68.409c9.446,0,17.102,7.658,17.102,17.102v10.531
	C312.693,200.872,315.819,190.322,315.819,179.04z"/>
<path style="fill:#9E6D4A;" d="M264.512,93.528h-17.102c-37.781,0-68.409,30.628-68.409,68.409v102.614h25.653V179.04
	c0-9.446,7.656-17.102,17.102-17.102h68.409c9.446,0,17.102,7.656,17.102,17.102v85.511h25.653V161.937
	C332.921,124.156,302.293,93.528,264.512,93.528z"/>
<path d="M476.142,360.579c-1.758-6.475-5.932-11.878-11.754-15.212l-14.217-8.145l1.146-2c2.171-3.79,0.909-8.621-2.839-10.864
	l-107.54-64.352v-98.069c0-42.141-34.285-76.426-76.426-76.426h-17.102c-42.141,0-76.426,34.285-76.426,76.426v17.102
	c0,4.428,3.588,8.017,8.017,8.017c4.428,0,8.017-3.588,8.017-8.017v-17.102c0-33.3,27.092-60.392,60.392-60.392h17.102
	c33.3,0,60.392,27.092,60.392,60.392v94.597h-9.62V179.04c0-13.851-11.268-25.119-25.119-25.119h-68.409
	c-13.851,0-25.119,11.268-25.119,25.119v77.495h-9.62V212.71c0-4.428-3.588-8.017-8.017-8.017c-4.428,0-8.017,3.588-8.017,8.017
	v47.296l-107.54,64.351c-3.748,2.244-5.011,7.074-2.839,10.864l1.146,2l-14.217,8.145c-11.869,6.799-16.123,22.388-9.309,34.28
	c4.636,8.093,13.12,12.629,21.839,12.629c4.232,0,8.518-1.069,12.445-3.318l14.215-8.145l0.932,1.628
	c2.125,3.708,6.948,5.099,10.724,3.091l59.789-31.838l-21.308,149.156c-0.68,4.759,3.134,9.151,7.937,9.151h222.33
	c4.803,0,8.616-4.392,7.937-9.151l-9.396-65.771c-0.626-4.386-4.697-7.423-9.07-6.802c-4.384,0.626-7.429,4.687-6.802,9.07
	l8.088,56.621H154.039l31.914-223.399h140.014l17.562,122.928c0.626,4.385,4.694,7.416,9.07,6.802
	c4.384-0.626,7.429-4.687,6.802-9.07l-5.648-39.535l59.787,31.839c3.775,2.007,8.599,0.617,10.724-3.091l0.933-1.628l14.216,8.145
	c11.879,6.805,27.488,2.55,34.282-9.31C477.032,373.826,477.901,367.054,476.142,360.579z M64.537,375.046
	c-4.348,2.492-9.91,0.979-12.401-3.368c-2.491-4.346-0.98-9.909,3.367-12.399l14.216-8.144l9.032,15.767L64.537,375.046z
	 M98.545,367.279c-0.175-0.689-18.767-33.082-19.383-33.642l89.525-53.571l-7.71,53.966L98.545,367.279z M221.756,169.954h68.409
	c5.01,0,9.086,4.076,9.086,9.086v28.534c-0.001,0.001-0.002,0.002-0.003,0.004c-9.643,14.591-25.824,23.303-43.287,23.303
	c-17.486,0-33.648-8.716-43.29-23.32V179.04C212.67,174.03,216.747,169.954,221.756,169.954z M212.67,231.331
	c12.009,9.96,27.222,15.583,43.29,15.583c16.055,0,31.276-5.629,43.29-15.59v25.21h-86.58L212.67,231.331L212.67,231.331z
	 M343.236,280.066l89.525,53.571c-0.617,0.559-19.208,32.953-19.383,33.642l-62.139-33.092c-0.095-0.05-0.193-0.09-0.29-0.136
	L343.236,280.066z M459.786,371.679c-2.489,4.346-8.052,5.859-12.4,3.367l-14.216-8.144l9.032-15.767l14.216,8.144
	C460.766,361.769,462.276,367.331,459.786,371.679z"/>
<path d="M255.961,417.937c4.428,0,8.017-3.588,8.017-8.017v-68.944h17.637c4.428,0,8.017-3.588,8.017-8.017
	c0-4.428-3.588-8.017-8.017-8.017h-17.637v-17.637c0-4.428-3.588-8.017-8.017-8.017s-8.017,3.588-8.017,8.017v17.637h-17.637
	c-4.428,0-8.017,3.588-8.017,8.017c0,4.428,3.588,8.017,8.017,8.017h17.637v68.944C247.944,414.349,251.533,417.937,255.961,417.937
	z"/>
<path d="M353.77,262.41c3.539,2.657,8.565,1.943,11.224-1.596c17.828-23.734,27.25-52.011,27.25-81.775
	c0-75.147-61.136-136.284-136.284-136.284S119.677,103.892,119.677,179.04c0,29.769,9.425,58.049,27.26,81.786
	c1.576,2.097,3.981,3.202,6.415,3.201c1.675,0,3.366-0.523,4.809-1.608c3.54-2.659,4.253-7.684,1.594-11.224
	c-15.731-20.937-24.045-45.889-24.045-72.156c0-66.307,53.945-120.251,120.251-120.251s120.251,53.944,120.251,120.251
	c0,26.263-8.312,51.21-24.037,72.146C349.516,254.726,350.23,259.751,353.77,262.41z"/>
<path d="M255.961,33.136c4.428,0,8.017-3.588,8.017-8.017V8.017c0-4.428-3.588-8.017-8.017-8.017c-4.428,0-8.017,3.588-8.017,8.017
	v17.102C247.944,29.547,251.533,33.136,255.961,33.136z"/>
<path d="M167.782,50.894c2.355,4.081,7.898,5.241,11.7,2.445c3.246-2.388,4.2-6.975,2.186-10.461l-8.551-14.811
	c-2.213-3.835-7.119-5.146-10.951-2.934c-3.834,2.214-5.148,7.117-2.934,10.951L167.782,50.894z"/>
<path d="M96.437,104.746l14.811,8.551c4.091,2.36,9.463,0.583,11.355-3.733c1.618-3.691,0.149-8.14-3.338-10.153l-14.811-8.551
	c-3.837-2.214-8.738-0.901-10.951,2.934C91.289,97.63,92.603,102.533,96.437,104.746z"/>
<path d="M76.386,195.608h17.102c4.428,0,8.017-3.588,8.017-8.017s-3.588-8.017-8.017-8.017H76.386c-4.428,0-8.017,3.588-8.017,8.017
	S71.959,195.608,76.386,195.608z"/>
<path d="M111.247,261.884l-14.811,8.551c-3.487,2.014-4.956,6.463-3.338,10.153c1.891,4.314,7.265,6.094,11.355,3.733l14.811-8.551
	c3.834-2.214,5.148-7.117,2.934-10.951C119.985,260.983,115.079,259.673,111.247,261.884z"/>
<path d="M392.657,275.769l14.811,8.551c4.091,2.36,9.463,0.583,11.355-3.733c1.618-3.691,0.149-8.14-3.338-10.153l-14.811-8.551
	c-3.836-2.213-8.738-0.901-10.951,2.934C387.508,268.652,388.823,273.556,392.657,275.769z"/>
<path d="M410.416,187.591c0,4.428,3.588,8.017,8.017,8.017h17.102c4.428,0,8.017-3.588,8.017-8.017s-3.588-8.017-8.017-8.017
	h-17.102C414.005,179.574,410.416,183.162,410.416,187.591z"/>
<path d="M396.673,114.373c1.36,0,2.74-0.346,4.001-1.075l14.811-8.551c3.834-2.214,5.148-7.117,2.934-10.951
	c-2.213-3.835-7.119-5.147-10.951-2.934l-14.811,8.551c-2.982,1.722-4.557,5.27-3.829,8.637
	C389.618,111.698,392.939,114.373,396.673,114.373z"/>
<path d="M333.188,53.828c3.788,2.185,8.768,0.848,10.951-2.934l8.551-14.811c2.214-3.834,0.9-8.737-2.934-10.951
	c-3.836-2.213-8.738-0.901-10.951,2.934l-8.551,14.811C328.04,46.712,329.354,51.615,333.188,53.828z"/>
<g>
</g>
<g>
</g>
<g>
</g>
<g>
</g>
<g>
</g>
<g>
</g>
<g>
</g>
<g>
</g>
<g>
</g>
<g>
</g>
<g>
</g>
<g>
</g>
<g>
</g>
<g>
</g>
<g>
</g>
</svg>
