<?xml version="1.0" encoding="iso-8859-1"?>
<!-- Generator: Adobe Illustrator 19.0.0, SVG Export Plug-In . SVG Version: 6.00 Build 0)  -->
<svg version="1.1" id="Capa_1" xmlns="http://www.w3.org/2000/svg" xmlns:xlink="http://www.w3.org/1999/xlink" x="0px" y="0px"
	 viewBox="0 0 512 512" style="enable-background:new 0 0 512 512;" xml:space="preserve">
<path id="SVGCleanerId_0" style="fill:#F4A32C;" d="M447.48,240.652c-8.239-1.495-16.223-3.534-23.727-6.058
	c-55.007-18.498-86.103-63.441-96.333-121.297c-0.971-5.482-8.878-5.482-9.85,0c-11.89,67.23-51.463,114.772-119.719,127.44
	c-5.429,1.007-5.427,8.829,0.003,9.835c67.625,12.508,107.89,59.962,119.74,126.654c0.746,4.202,5.182,4.224,4.93,4.126
	c2.426-0.003,4.501-1.747,4.92-4.137c6.033-34.393,22.972-81.118,69.409-108.399c14.835-8.706,31.873-14.871,50.638-18.325
	c2.375-0.437,4.099-2.508,4.096-4.924C451.584,243.152,449.857,241.083,447.48,240.652z"/>
<g>
	<path id="SVGCleanerId_0_1_" style="fill:#F4A32C;" d="M447.48,240.652c-8.239-1.495-16.223-3.534-23.727-6.058
		c-55.007-18.498-86.103-63.441-96.333-121.297c-0.971-5.482-8.878-5.482-9.85,0c-11.89,67.23-51.463,114.772-119.719,127.44
		c-5.429,1.007-5.427,8.829,0.003,9.835c67.625,12.508,107.89,59.962,119.74,126.654c0.746,4.202,5.182,4.224,4.93,4.126
		c2.426-0.003,4.501-1.747,4.92-4.137c6.033-34.393,22.972-81.118,69.409-108.399c14.835-8.706,31.873-14.871,50.638-18.325
		c2.375-0.437,4.099-2.508,4.096-4.924C451.584,243.152,449.857,241.083,447.48,240.652z"/>
</g>
<path style="fill:#E89528;" d="M250.114,221.255c-16.024,9.797-33.791,16.054-52.261,19.482c-5.429,1.007-5.427,8.829,0.003,9.835
	c67.625,12.508,107.89,59.962,119.74,126.654c0.746,4.202,5.182,4.224,4.93,4.126c2.426-0.003,4.501-1.747,4.92-4.137
	c3.34-19.039,10.034-41.855,23.212-63.061C332.777,264.402,298.623,233.432,250.114,221.255z"/>
<path style="fill:#F7E7A1;" d="M215.17,386.144c-19.458-6.453-32.33-20.954-38.593-40.995c-1.125-3.599-4.918-3.559-4.773-3.509
	c-2.186,0-4.119,1.42-4.772,3.506c-6.068,19.37-18.766,34.189-38.594,40.979c-4.493,1.538-4.498,7.922,0,9.462
	c19.699,6.743,32.48,21.446,38.599,40.998c1.129,3.606,4.915,3.554,4.782,3.508c2.189-0.004,4.123-1.432,4.769-3.524
	c4.525-14.636,12.508-25.952,23.729-33.634l0.001-0.001c12.267-8.403,18.288-5.965,18.279-12.051
	C218.593,388.731,217.213,386.821,215.17,386.144z"/>
<path style="fill:#EAD786;" d="M148.376,375.29c-0.141-0.048-0.271-0.116-0.405-0.176c-5.753,4.944-12.357,8.553-19.533,11.011
	c-4.493,1.538-4.498,7.922,0,9.462c19.699,6.743,32.48,21.446,38.599,40.998c1.129,3.606,4.915,3.554,4.782,3.508
	c7.043-0.013,3.297-8.424,15.031-24.18C180.608,396.317,167.755,381.924,148.376,375.29z"/>
<path style="fill:#F4D44E;" d="M128.518,116.419c-19.535-6.479-32.351-21.035-38.593-40.994c-1.125-3.599-4.917-3.558-4.773-3.509
	c-2.186,0-4.119,1.42-4.772,3.506C74.325,94.75,61.653,109.595,41.786,116.4c-4.493,1.538-4.498,7.922,0,9.462
	c19.747,6.76,32.496,21.498,38.599,40.997c1.129,3.606,4.916,3.554,4.781,3.508c2.189-0.004,4.123-1.432,4.77-3.523
	c7.492-24.231,22.581-32.498,23.731-33.635c12.231-8.381,18.287-5.998,18.278-12.051
	C131.941,119.005,130.561,117.097,128.518,116.419z"/>
<path style="fill:#E8C842;" d="M59.794,106.642c-13.787,11.023-21.388,7.94-21.388,14.488c0,2.138,1.358,4.039,3.381,4.731
	c19.747,6.76,32.496,21.498,38.599,40.997c1.129,3.606,4.916,3.554,4.781,3.508c6.69-0.012,3.476-7.824,14.091-22.901
	C88.329,113.727,62.263,108.256,59.794,106.642z"/>
<path d="M250.956,382.77c-4.086-0.848-23.251,2.453-41.515-7.39c-3.649-1.967-8.197-0.602-10.163,3.044s-0.602,8.196,3.044,10.163
	c1.556,0.838,3.117,1.6,4.679,2.293c-15.304,6.722-27.668,18.856-34.891,36.791c-6.853-16.778-18.598-29.534-34.906-36.811
	c16.632-7.422,28.203-20.402,34.906-36.808c1.436,3.544,2.746,6.006,2.796,6.108c1.882,3.689,6.402,5.153,10.092,3.271
	c3.69-1.883,5.154-6.401,3.271-10.092c-0.022-0.1-9.103-16.674-8.03-38.733c0.613-4.135-2.285-8.245-6.704-9.058
	c-4.022-0.792-8.478,1.759-9.515,6.277c-0.536,2.341,3.344,42.848-26.052,61.642c-19.137,12.208-40.863,8.414-44.911,9.332
	c-8.557,1.948-8.55,14.176,0,16.123c3.998,0.901,26.15-2.883,45.293,9.578c28.428,18.522,25.291,57.953,25.481,59.719
	c0,9.249,13.217,11.331,16.134,2.307c0.987-3.073-3.165-42.18,24.905-61.4c18.493-12.672,41.411-9.616,45.399-10.065
	C259.396,398.036,260.212,384.728,250.956,382.77z"/>
<path d="M503.965,236.428c-13.713-1.523-111.464,12.208-154.185-77.488c-22.459-47.18-16.698-89.951-17.922-95.317
	c-1.102-4.824-5.663-7.714-10.024-7.157c-4.973,0.563-8.272,4.681-8.272,8.827v19.464c-3.389,66.912-33.839,123.872-97.781,143.921
	c-36.925,11.583-68.981,6.58-74.966,7.889c-9.598,2.178-9.67,15.963,0.102,18.134c8.368,1.766,71.326-8.434,120.217,32.169
	c3.188,2.646,7.917,2.207,10.564-0.978c2.646-3.188,2.209-7.916-0.978-10.564c-16.776-13.932-36.883-23.888-59.891-29.672
	c60.573-15.257,97.752-58.495,111.983-119.061c14.112,60.196,50.984,103.816,112.208,118.997
	c-60.613,15.167-98.306,58.369-112.295,118.769c-5.208-22.138-13.896-43.327-26.956-61.831c-2.389-3.385-7.069-4.192-10.454-1.804
	c-3.386,2.389-4.192,7.069-1.804,10.454c4.604,6.522,8.747,13.629,12.319,21.124c21.189,44.516,17.445,89.806,17.752,94.175
	c0.791,11.16,18.999,11.722,18.429-2.077c-1.029-24.872,0.9-109.129,68.956-149.111c45.923-26.952,97.009-19.079,103.828-20.613
	C515.073,252.345,513.961,237.55,503.965,236.428z"/>
<path d="M93.56,199.81c0.458-2.564-1.544-22.067,7.956-40.944c1.862-3.701,0.372-8.21-3.328-10.073
	c-3.701-1.864-8.21-0.372-10.073,3.328c-0.948,1.885-1.829,3.84-2.642,5.856c-6.849-16.789-18.595-29.555-34.918-36.841
	c16.631-7.425,28.201-20.402,34.905-36.809c6.699,16.527,18.176,29.448,34.878,36.835c-1.637,0.723-3.274,1.52-4.899,2.398
	c-3.645,1.971-5,6.522-3.028,10.167c1.971,3.644,6.521,4.999,10.167,3.028c17.704-9.578,37.046-6.973,41.042-7.418
	c9.175-1.051,9.872-14.351,0.687-16.295c-5.079-1.053-45.121,6.036-63.009-30.052c-8.409-16.93-7.825-35.754-7.71-38.114
	c0.602-4.085-2.234-8.238-6.711-9.055c-3.997-0.791-8.474,1.745-9.509,6.29c-0.534,2.33,3.343,42.837-26.05,61.631
	c-18.466,11.78-40.018,8.737-44.08,9.19c-9.127,1.038-9.865,14.207-0.832,16.264c4.362,0.982,26.045-2.952,45.293,9.578
	c20.514,13.364,24.777,37.908,25.482,51.479c0.097,7.756-0.246,8.658,0.363,10.548c1.121,3.469,4.29,5.798,7.884,5.798
	C89.555,206.6,92.898,203.549,93.56,199.81z"/>
<g>
</g>
<g>
</g>
<g>
</g>
<g>
</g>
<g>
</g>
<g>
</g>
<g>
</g>
<g>
</g>
<g>
</g>
<g>
</g>
<g>
</g>
<g>
</g>
<g>
</g>
<g>
</g>
<g>
</g>
</svg>
