<?xml version="1.0" encoding="iso-8859-1"?>
<!-- Generator: Adobe Illustrator 19.0.0, SVG Export Plug-In . SVG Version: 6.00 Build 0)  -->
<svg version="1.1" id="Capa_1" xmlns="http://www.w3.org/2000/svg" xmlns:xlink="http://www.w3.org/1999/xlink" x="0px" y="0px"
	 viewBox="0 0 512.001 512.001" style="enable-background:new 0 0 512.001 512.001;" xml:space="preserve">
<g>
	<path style="fill:#DBDBDB;" d="M495.069,94.016c-12.392,12.382-32.472,12.382-44.864,0c-0.397-0.407-0.794-0.815-1.171-1.232
		L155.096,386.722L92.78,449.038c0.417,0.377,0.835,0.764,1.232,1.171c12.392,12.382,12.392,32.472,0,44.864
		c-12.392,12.382-32.472,12.382-44.864,0c-6.323-6.333-9.409-14.663-9.276-22.941c-8.289,0.132-16.618-2.963-22.941-9.286
		c-12.392-12.382-12.392-32.472,0-44.864c12.382-12.382,32.472-12.382,44.864,0c0.397,0.407,0.784,0.815,1.161,1.232L419.209,62.96
		c-0.417-0.377-0.825-0.764-1.222-1.171c-12.392-12.382-12.392-32.472,0-44.864c12.382-12.382,32.472-12.382,44.864,0
		c6.323,6.323,9.409,14.653,9.276,22.941c8.289-0.132,16.618,2.963,22.941,9.286C507.461,61.534,507.461,81.624,495.069,94.016z"/>
	<path style="fill:#DBDBDB;" d="M495.069,462.846c-6.323,6.323-14.653,9.419-22.941,9.286c0.132,8.278-2.953,16.608-9.276,22.941
		c-12.392,12.382-32.482,12.382-44.864,0c-12.392-12.392-12.392-32.482,0-44.864c0.397-0.407,0.804-0.794,1.222-1.171
		l-62.317-62.317l-8.217-8.217l-92.681-92.681l-29.824-29.824L103.716,133.545l-40.76-40.76c-0.377,0.417-0.764,0.825-1.161,1.232
		c-12.392,12.382-32.482,12.382-44.864,0c-12.392-12.392-12.392-32.482,0-44.864c6.323-6.323,14.653-9.419,22.941-9.286
		c-0.132-8.289,2.953-16.618,9.276-22.941c12.392-12.382,32.472-12.382,44.864,0c12.392,12.392,12.392,32.482,0,44.864
		c-0.397,0.407-0.815,0.794-1.232,1.171l32.594,32.594l130.621,130.621l29.824,29.824l95.237,95.237l9.51,9.51l58.468,58.468
		c0.377-0.417,0.774-0.825,1.171-1.232c12.392-12.382,32.472-12.382,44.864,0C507.461,430.374,507.461,450.464,495.069,462.846z"/>
</g>
<path style="fill:#C1C0BF;" d="M381.055,351.236l9.51,9.51h-1.914c-8.655,0-16.781,3.37-22.911,9.49
	c-4.572,4.582-7.606,10.284-8.849,16.485l-8.217-8.217l-92.681-92.681L155.096,386.722c-2.983-14.795-16.088-25.975-31.749-25.975
	h-1.924L226.17,255.999L103.716,133.545l-7.779-7.779c5.835-13.451,13.308-26.026,22.177-37.471l7.26,7.26l130.621,130.621
	L393.875,88.294c8.879,11.445,16.353,24.02,22.177,37.471L285.819,255.999L381.055,351.236z"/>
<path style="fill:#DBDBDB;" d="M399.791,194.864v135.335h-11.14c-17.381,0-33.113,7.046-44.508,18.44
	c-11.384,11.384-18.43,27.116-18.43,44.497v35.985c0,17.565-14.235,31.8-31.8,31.8h-75.839c-17.555,0-31.79-14.235-31.79-31.8
	v-35.985c0-34.753-28.185-62.938-62.938-62.938h-11.14V194.864c0-79.413,64.374-143.787,143.787-143.787
	S399.791,115.451,399.791,194.864z"/>
<path style="fill:#C1C0BF;" d="M159.343,296.986c1.174,14.408,8.604,27.556,20.276,36.084c16.755,12.24,39.453,39.729,39.453,98.832
	c0,12.005,2.159,21.536,5.916,29.02h-6.914c-17.555,0-31.79-14.235-31.79-31.8v-35.985c0-34.76-28.178-62.938-62.938-62.938h-11.14
	V194.864c0-79.413,64.374-143.787,143.787-143.787C220.668,51.077,143.638,104.209,159.343,296.986z"/>
<g>
	<path style="fill:#423D3D;" d="M256.482,283.702h-0.484h-0.484c-14.171,0-25.66,11.488-25.66,25.66v15.493
		c0,7.219,5.853,13.072,13.072,13.072c7.219,0,13.072-5.853,13.072-13.072c0,7.219,5.853,13.072,13.072,13.072
		s13.072-5.853,13.072-13.072v-15.493C282.142,295.189,270.654,283.702,256.482,283.702z"/>
	<circle style="fill:#423D3D;" cx="327.601" cy="243.777" r="42.604"/>
	<circle style="fill:#423D3D;" cx="184.405" cy="243.777" r="42.604"/>
</g>
<path d="M62.673,103.302l35.643,35.643c1.491,1.491,3.446,2.237,5.4,2.237s3.909-0.745,5.4-2.237c2.982-2.982,2.982-7.818,0-10.8
	l-40.76-40.76c-1.481-1.481-3.516-2.295-5.597-2.234c-2.094,0.054-4.073,0.965-5.474,2.52c-0.299,0.332-0.608,0.656-0.923,0.98
	c-9.4,9.353-24.655,9.341-34.031-0.034c-4.551-4.552-7.056-10.602-7.056-17.036c0-6.433,2.505-12.48,7.057-17.028
	c4.651-4.651,10.811-7.15,17.419-7.05c2.063,0.039,4.06-0.774,5.522-2.236c1.462-1.462,2.269-3.455,2.236-5.522
	c-0.105-6.588,2.396-12.774,7.039-17.417c9.392-9.384,24.675-9.386,34.065-0.002c4.552,4.551,7.057,10.601,7.057,17.035
	c0,6.433-2.506,12.48-7.055,17.025c-0.024,0.024-0.05,0.05-0.074,0.074c-0.281,0.289-0.58,0.562-0.877,0.829
	c-1.554,1.402-2.464,3.382-2.518,5.474c-0.054,2.092,0.755,4.116,2.234,5.595l32.594,32.594c2.982,2.982,7.818,2.982,10.8,0
	c2.982-2.982,2.982-7.818,0-10.8l-27.475-27.475c4.964-6.716,7.644-14.81,7.644-23.318c0-10.514-4.095-20.401-11.534-27.838
	C84.064-3.81,59.096-3.811,43.748,11.524c-5.867,5.867-9.642,13.234-10.977,21.243c-8.002,1.337-15.369,5.114-21.239,10.983
	C4.095,51.181,0,61.065,0,71.58c0,10.514,4.094,20.401,11.531,27.836C25.444,113.33,47.277,114.626,62.673,103.302z"/>
<path d="M449.321,408.701l-24.609-24.609c-2.982-2.982-7.818-2.982-10.8,0c-2.982,2.982-2.982,7.817,0,10.799l29.723,29.723
	c1.481,1.481,3.518,2.286,5.594,2.234c2.092-0.053,4.071-0.963,5.473-2.516c0.297-0.329,0.612-0.651,0.934-0.981
	c9.395-9.352,24.653-9.339,34.033,0.032c4.551,4.551,7.057,10.601,7.057,17.035c0,6.433-2.505,12.481-7.057,17.028
	c-4.652,4.651-10.847,7.153-17.418,7.05c-2.087-0.036-4.06,0.774-5.522,2.236c-1.462,1.462-2.269,3.455-2.236,5.522
	c0.105,6.58-2.397,12.768-7.039,17.417c-9.396,9.388-24.678,9.39-34.065,0.002c-4.552-4.551-7.057-10.601-7.057-17.035
	c0-6.433,2.506-12.48,7.055-17.026c0.023-0.024,0.048-0.048,0.071-0.073c0.282-0.289,0.572-0.563,0.869-0.831
	c1.554-1.402,2.464-3.382,2.518-5.474s-0.755-4.116-2.234-5.595l-70.534-70.534c-2.982-2.982-7.818-2.982-10.799,0
	c-2.982,2.982-2.982,7.817,0,10.8l65.42,65.421c-4.96,6.715-7.639,14.807-7.639,23.313c0,10.514,4.095,20.401,11.532,27.836
	c7.669,7.67,17.746,11.506,27.826,11.505c10.08,0,20.163-3.837,27.842-11.509c5.864-5.873,9.637-13.237,10.972-21.238
	c8.003-1.337,15.369-5.114,21.24-10.983c7.437-7.431,11.533-17.315,11.533-27.831c0-10.514-4.094-20.4-11.533-27.838
	C486.549,398.672,464.713,397.379,449.321,408.701z"/>
<path d="M386.456,345.835c-2.981-2.982-7.817-2.982-10.8,0c-2.982,2.982-2.982,7.817,0,10.8l21.204,21.204
	c1.491,1.492,3.446,2.237,5.4,2.237c1.954,0,3.909-0.745,5.4-2.237c2.982-2.982,2.982-7.817,0-10.8L386.456,345.835z"/>
<path d="M392.025,100.944l32.584-32.584c1.481-1.481,2.288-3.503,2.234-5.595c-0.054-2.092-0.964-4.072-2.518-5.474
	c-0.296-0.267-0.585-0.541-0.867-0.829c-0.024-0.024-0.049-0.05-0.074-0.074c-4.55-4.545-7.055-10.592-7.055-17.025
	c0-6.434,2.506-12.485,7.057-17.035c9.388-9.388,24.67-9.387,34.063,0c4.645,4.645,7.146,10.831,7.041,17.419
	c-0.033,2.067,0.774,4.06,2.236,5.522c1.462,1.462,3.459,2.274,5.522,2.236c6.593-0.106,12.768,2.399,17.421,7.053
	c4.549,4.545,7.055,10.593,7.055,17.026c0,6.435-2.506,12.485-7.055,17.034c-9.393,9.385-24.676,9.385-34.024,0.045
	c-0.32-0.329-0.641-0.657-0.946-0.993c-1.402-1.554-3.381-2.463-5.473-2.516c-2.095-0.057-4.115,0.755-5.594,2.234l-40.76,40.76
	c-2.982,2.982-2.982,7.817,0,10.8c1.491,1.492,3.446,2.237,5.4,2.237c1.954,0,3.909-0.745,5.4-2.237l35.647-35.647
	c15.391,11.322,37.227,10.029,51.148-3.882c7.436-7.435,11.531-17.321,11.531-27.836c0-10.515-4.095-20.4-11.531-27.828
	c-5.871-5.871-13.237-9.649-21.241-10.986c-1.335-8.009-5.111-15.376-10.979-21.245c-15.352-15.339-40.322-15.338-55.661,0.002
	c-7.436,7.435-11.532,17.321-11.532,27.836c0,8.505,2.679,16.597,7.64,23.313l-27.471,27.471c-2.982,2.982-2.982,7.817,0,10.8
	C384.208,103.926,389.044,103.926,392.025,100.944z"/>
<path d="M157.924,373.094L87.38,443.638c-1.481,1.481-2.288,3.503-2.234,5.595c0.054,2.092,0.964,4.072,2.518,5.474
	c0.297,0.268,0.596,0.541,0.879,0.831c0.023,0.024,0.048,0.049,0.071,0.073c4.55,4.546,7.055,10.593,7.055,17.026
	c0,6.434-2.506,12.485-7.055,17.033c-9.392,9.385-24.674,9.385-34.061,0.006c-4.647-4.655-7.149-10.842-7.044-17.423
	c0.033-2.068-0.774-4.06-2.236-5.522c-1.462-1.462-3.47-2.271-5.522-2.236c-6.593,0.1-12.767-2.399-17.42-7.052
	c-4.552-4.546-7.056-10.592-7.056-17.026s2.506-12.485,7.057-17.035c9.376-9.375,24.629-9.386,34.03-0.034
	c0.315,0.324,0.623,0.648,0.923,0.98c1.402,1.555,3.382,2.466,5.474,2.52c2.09,0.058,4.116-0.753,5.597-2.234l67.978-67.978
	c2.982-2.982,2.982-7.817,0-10.799c-2.982-2.982-7.818-2.982-10.8,0l-62.86,62.859c-15.394-11.321-37.229-10.027-51.142,3.886
	C4.094,420.017,0,429.903,0,440.417c0,10.515,4.095,20.4,11.531,27.829c5.872,5.872,13.237,9.65,21.242,10.986
	c1.336,8,5.11,15.366,10.978,21.244c7.672,7.666,17.75,11.5,27.829,11.499c10.079,0,20.159-3.834,27.833-11.501
	c7.436-7.435,11.532-17.321,11.532-27.836c0-8.507-2.681-16.602-7.644-23.319l65.424-65.424c2.982-2.982,2.982-7.817,0-10.8
	C165.742,370.111,160.906,370.112,157.924,373.094z"/>
<path d="M255.515,276.065c-18.36,0-33.297,14.937-33.297,33.297v15.493c0,11.419,9.29,20.708,20.708,20.708
	c4.953,0,9.504-1.747,13.071-4.658c3.567,2.911,8.12,4.658,13.072,4.658c11.419,0,20.708-9.289,20.708-20.708v-15.493
	c0-18.36-14.937-33.297-33.297-33.297H255.515z M274.505,309.36v15.493c0,2.997-2.439,5.434-5.434,5.434
	c-2.997,0-5.435-2.438-5.435-5.434c0-4.218-3.419-7.637-7.637-7.637c-4.218,0-7.637,3.419-7.637,7.637
	c0,2.997-2.439,5.434-5.434,5.434c-2.996,0-5.434-2.438-5.434-5.434V309.36c0-9.938,8.085-18.023,18.023-18.023h0.968
	C266.42,291.338,274.505,299.423,274.505,309.36z"/>
<path d="M327.597,294.014c27.703,0,50.241-22.538,50.241-50.241s-22.538-50.241-50.241-50.241
	c-27.703,0-50.241,22.538-50.241,50.241S299.894,294.014,327.597,294.014z M327.597,208.806c19.282,0,34.968,15.686,34.968,34.968
	s-15.686,34.968-34.968,34.968c-19.282,0-34.968-15.686-34.968-34.968S308.316,208.806,327.597,208.806z"/>
<path d="M184.4,193.533c-27.703,0-50.241,22.538-50.241,50.241c0,27.703,22.538,50.241,50.241,50.241s50.241-22.538,50.241-50.241
	C234.642,216.071,212.103,193.533,184.4,193.533z M184.4,278.741c-19.282,0-34.968-15.686-34.968-34.968
	s15.686-34.968,34.968-34.968s34.968,15.686,34.968,34.968S203.681,278.741,184.4,278.741z"/>
<path d="M388.653,337.838h11.136c4.218,0,7.637-3.419,7.637-7.637V194.866c0-83.496-67.929-151.427-151.427-151.427
	s-151.426,67.929-151.426,151.427v59.86c0,4.218,3.419,7.637,7.637,7.637s7.637-3.419,7.637-7.637v-59.86
	c0-75.074,61.077-136.153,136.153-136.153c75.074,0,136.152,61.078,136.152,136.153v127.697h-3.499
	c-36.334,0-66.335,27.603-70.155,62.938h-19.036V364.09c0-4.218-3.419-7.637-7.637-7.637c-4.218,0-7.637,3.419-7.637,7.637v21.411
	h-20.553V364.09c0-4.218-3.419-7.637-7.637-7.637s-7.637,3.419-7.637,7.637v21.411h-20.552V364.09c0-4.218-3.419-7.637-7.637-7.637
	s-7.637,3.419-7.637,7.637v21.411h-19.036c-3.82-35.335-33.821-62.938-70.155-62.938h-3.499v-42.379
	c0-4.218-3.419-7.637-7.637-7.637c-4.218,0-7.637,3.419-7.637,7.637V330.2c0,4.218,3.419,7.637,7.637,7.637h11.136
	c30.493,0,55.302,24.809,55.302,55.301v35.984c0,21.744,17.69,39.434,39.433,39.434h75.84c21.744,0,39.433-17.69,39.433-39.434
	v-35.984C333.351,362.645,358.159,337.838,388.653,337.838z M318.077,429.123c0,0.416-0.01,0.83-0.032,1.241
	c-0.46,9.046-5.919,16.795-13.663,20.532c-3.168,1.528-6.718,2.386-10.465,2.386h-75.84c-3.746,0-7.297-0.857-10.465-2.386
	c-7.744-3.737-13.203-11.486-13.663-20.532c-0.021-0.411-0.032-0.825-0.032-1.241v-28.347h18.616v18.508
	c0,4.218,3.419,7.637,7.637,7.637s7.637-3.419,7.637-7.637v-18.508h20.552v18.508c0,4.218,3.419,7.637,7.637,7.637
	s7.637-3.419,7.637-7.637v-18.508h20.553v18.508c0,4.218,3.419,7.637,7.637,7.637c4.218,0,7.637-3.419,7.637-7.637v-18.508h18.616
	V429.123z"/>
<g>
</g>
<g>
</g>
<g>
</g>
<g>
</g>
<g>
</g>
<g>
</g>
<g>
</g>
<g>
</g>
<g>
</g>
<g>
</g>
<g>
</g>
<g>
</g>
<g>
</g>
<g>
</g>
<g>
</g>
</svg>
